<svg width="215" height="61" viewBox="0 0 215 61" fill="none" xmlns="http://www.w3.org/2000/svg">
<path d="M96.5446 24.2843H87.9206V27.0343H92.2106C92.0566 28.5523 90.7806 30.1803 87.6346 30.1803C84.1366 30.1803 82.0686 28.3983 82.0686 24.9883C82.0686 21.6663 84.1366 19.8843 87.4586 19.8843C90.9126 19.8843 91.7706 21.4903 91.9906 22.4583H96.4566C96.1486 19.1363 93.2446 16.6943 87.4586 16.6943C81.8266 16.6943 77.8666 19.3563 77.8666 25.0103C77.8666 30.6423 81.8706 33.3043 87.6346 33.3043C90.0986 33.3043 92.2326 32.5563 93.6626 30.8183V32.8643H96.5446V24.2843ZM110.761 21.8863H115.051C114.919 17.8603 111.311 16.6943 106.779 16.6943C102.181 16.6943 98.7934 17.9263 98.7934 21.5563C98.7934 24.4603 100.707 25.6043 103.611 25.9563L108.759 26.6163C110.123 26.7923 111.113 27.1663 111.113 28.4203C111.135 29.7623 109.617 30.4223 107.043 30.4223C104.601 30.4223 102.753 29.9163 102.621 27.5843H98.3314C98.4634 32.1603 101.961 33.3043 106.889 33.3043C112.125 33.3043 115.579 32.1603 115.579 28.1783C115.579 25.0763 113.665 23.8883 110.761 23.5363L105.217 22.8763C103.941 22.7223 103.149 22.3703 103.149 21.3363C103.149 20.1263 104.403 19.5323 106.669 19.5323C108.913 19.5323 110.651 20.0383 110.761 21.8863ZM140.612 17.1343H124.266V20.3243H130.536V32.8423H134.364V20.3243H140.612V17.1343ZM140.526 20.9843V32.8423H144.288V27.6503C144.288 24.8783 146.488 24.2403 148.556 24.2403C149.282 24.2403 149.964 24.3503 150.448 24.4603V20.8083C150.14 20.7203 149.7 20.6763 149.304 20.6763C147.038 20.6763 145.476 21.2923 144.31 22.5463H144.2V20.9843H140.526ZM165.222 30.9283V24.2183C165.222 21.3803 162.516 20.5663 158.71 20.5663C155.212 20.5663 152.154 21.5563 152.066 24.5263H156.026C156.114 23.5363 157.258 23.1183 158.732 23.1183C160.558 23.1183 161.306 23.5583 161.306 24.2183C161.306 24.8343 160.888 25.0983 159.942 25.1863L155.036 25.6923C152.88 25.9123 151.274 26.8583 151.274 29.4323C151.274 32.1163 153.65 33.2823 156.158 33.2823C158.424 33.2823 160.382 32.6223 161.548 31.1703V31.5663C161.548 32.1823 161.68 32.6443 161.878 32.8423H165.552V32.7103C165.244 32.3363 165.222 31.6103 165.222 30.9283ZM161.46 27.6723C161.46 30.0703 158.952 30.8623 157.28 30.8623C156.048 30.8623 155.168 30.4883 155.168 29.4103C155.168 28.4203 155.85 28.0463 156.862 27.9143L160.36 27.4083C160.756 27.3643 161.218 27.2763 161.46 27.1003V27.6723ZM174.679 19.1143C175.339 19.1143 175.669 19.1583 175.977 19.2023V16.5403C175.669 16.4963 175.097 16.3863 173.975 16.3863C170.675 16.3863 168.739 17.2443 168.739 20.1483V20.9843H166.693V23.4043H168.739V32.8643H172.501V23.4043H175.713V20.9843H172.501V20.6103C172.501 19.2463 173.447 19.1143 174.679 19.1143ZM182.631 29.9823C181.685 29.9823 181.157 29.7183 181.157 28.8383V23.4043H184.369V20.9843H181.157V17.7503H177.395V20.9843H175.349V23.4043H177.395V29.5203C177.395 32.1163 178.495 33.0403 181.883 33.0403C182.785 33.0403 183.841 32.9303 184.347 32.8423V29.8723C183.819 29.9603 183.049 29.9823 182.631 29.9823ZM192.94 20.5663C188.012 20.5663 185.372 22.9203 185.372 26.9243C185.372 30.9283 188.012 33.2823 192.94 33.2823C197.868 33.2823 200.508 30.9283 200.508 26.9243C200.508 22.9203 197.868 20.5663 192.94 20.5663ZM192.94 30.4443C190.564 30.4443 189.266 29.1903 189.266 26.9243C189.266 24.6583 190.564 23.4043 192.94 23.4043C195.316 23.4043 196.614 24.6583 196.614 26.9243C196.614 29.1903 195.316 30.4443 192.94 30.4443ZM202.53 32.8423H206.292V16.9143H202.53V32.8423ZM208.846 32.8423H212.608V16.9143H208.846V32.8423Z" fill="white"/>
<g clip-path="url(#clip0_4_353)">
<path fill-rule="evenodd" clip-rule="evenodd" d="M6.03308 61.0001H54.9673C54.1615 57.5412 51.7867 39.3818 50.97 34.4973C50.7592 33.2365 50.4426 31.8692 50.4426 30.5H33.5167V33.5165H27.4837V30.5H10.5577C10.5577 31.7012 9.73626 36.3716 9.50293 38.1595L6.03308 61.0001ZM27.4943 39.7313H33.506V54.6904H27.4943V39.7313Z" fill="white"/>
<path fill-rule="evenodd" clip-rule="evenodd" d="M0 21.1155V36.7008H6.20052V24.4672H54.7995V36.7008H61V21.1155C61 19.5839 59.6826 18.2667 58.1512 18.2667H2.84878C1.31717 18.2667 0 19.5841 0 21.1155Z" fill="white"/>
<path fill-rule="evenodd" clip-rule="evenodd" d="M13.4067 12.2337H27.4836V6.20064H33.5167V12.2337H47.5936C47.5936 11.3301 47.3177 10.0706 47.1625 9.14551C46.9706 8.00043 46.8631 7.28279 46.7063 6.08253L45.7502 0.00012207H15.2501C15.1027 1.77087 13.4067 10.9005 13.4067 12.2337Z" fill="white"/>
</g>
<defs>
<clipPath id="clip0_4_353">
<rect width="61" height="61" fill="white"/>
</clipPath>
</defs>
</svg>
