<svg width="18" height="18" viewBox="0 0 18 18" fill="none" xmlns="http://www.w3.org/2000/svg">
<path fill-rule="evenodd" clip-rule="evenodd" d="M0 9C0 4.02564 4.02529 0 9 0C13.9743 0 18 4.02529 18 9C18 13.9744 13.9747 18 9 18C4.02564 18 0 13.9747 0 9ZM1.40625 9C1.40625 13.1971 4.80259 16.5938 9 16.5938C13.1971 16.5938 16.5938 13.1974 16.5938 9C16.5938 4.80287 13.1974 1.40625 9 1.40625C4.80287 1.40625 1.40625 4.80259 1.40625 9Z" fill="#774CEB"/>
<path d="M9 8C8.4477 8 8 8.61502 8 9.00767V13.0256C8 13.4182 8.4477 14 9 14C9.5523 14 10 13.4182 10 13.0255V9.00767C10 8.61502 9.5523 8 9 8Z" fill="#774CEB"/>
<circle cx="9" cy="6" r="1" fill="#774CEB"/>
</svg>
