<svg width="160" height="38" viewBox="0 0 160 38" fill="none" xmlns="http://www.w3.org/2000/svg">
<path d="M63.948 18.998H56.892V21.248H60.402C60.276 22.49 59.232 23.822 56.658 23.822C53.796 23.822 52.104 22.364 52.104 19.574C52.104 16.856 53.796 15.398 56.514 15.398C59.34 15.398 60.042 16.712 60.222 17.504H63.876C63.624 14.786 61.248 12.788 56.514 12.788C51.906 12.788 48.666 14.966 48.666 19.592C48.666 24.2 51.942 26.378 56.658 26.378C58.674 26.378 60.42 25.766 61.59 24.344V26.018H63.948V18.998ZM75.5799 17.036H79.0899C78.9819 13.742 76.0299 12.788 72.3219 12.788C68.5599 12.788 65.7879 13.796 65.7879 16.766C65.7879 19.142 67.3539 20.078 69.7299 20.366L73.9419 20.906C75.0579 21.05 75.8679 21.356 75.8679 22.382C75.8859 23.48 74.6439 24.02 72.5379 24.02C70.5399 24.02 69.0279 23.606 68.9199 21.698H65.4099C65.5179 25.442 68.3799 26.378 72.4119 26.378C76.6959 26.378 79.5219 25.442 79.5219 22.184C79.5219 19.646 77.9559 18.674 75.5799 18.386L71.0439 17.846C69.9999 17.72 69.3519 17.432 69.3519 16.586C69.3519 15.596 70.3779 15.11 72.2319 15.11C74.0679 15.11 75.4899 15.524 75.5799 17.036ZM100.003 13.148H86.6288V15.758H91.7588V26H94.8908V15.758H100.003V13.148ZM99.9327 16.298V26H103.011V21.752C103.011 19.484 104.811 18.962 106.503 18.962C107.097 18.962 107.655 19.052 108.051 19.142V16.154C107.799 16.082 107.439 16.046 107.115 16.046C105.261 16.046 103.983 16.55 103.029 17.576H102.939V16.298H99.9327ZM120.139 24.434V18.944C120.139 16.622 117.925 15.956 114.811 15.956C111.949 15.956 109.447 16.766 109.375 19.196H112.615C112.687 18.386 113.623 18.044 114.829 18.044C116.323 18.044 116.935 18.404 116.935 18.944C116.935 19.448 116.593 19.664 115.819 19.736L111.805 20.15C110.041 20.33 108.727 21.104 108.727 23.21C108.727 25.406 110.671 26.36 112.723 26.36C114.577 26.36 116.179 25.82 117.133 24.632V24.956C117.133 25.46 117.241 25.838 117.403 26H120.409V25.892C120.157 25.586 120.139 24.992 120.139 24.434ZM117.061 21.77C117.061 23.732 115.009 24.38 113.641 24.38C112.633 24.38 111.913 24.074 111.913 23.192C111.913 22.382 112.471 22.076 113.299 21.968L116.161 21.554C116.485 21.518 116.863 21.446 117.061 21.302V21.77ZM127.876 14.768C128.416 14.768 128.686 14.804 128.938 14.84V12.662C128.686 12.626 128.218 12.536 127.3 12.536C124.6 12.536 123.016 13.238 123.016 15.614V16.298H121.342V18.278H123.016V26.018H126.094V18.278H128.722V16.298H126.094V15.992C126.094 14.876 126.868 14.768 127.876 14.768ZM134.382 23.66C133.608 23.66 133.176 23.444 133.176 22.724V18.278H135.804V16.298H133.176V13.652H130.098V16.298H128.424V18.278H130.098V23.282C130.098 25.406 130.998 26.162 133.77 26.162C134.508 26.162 135.372 26.072 135.786 26V23.57C135.354 23.642 134.724 23.66 134.382 23.66ZM142.817 15.956C138.785 15.956 136.625 17.882 136.625 21.158C136.625 24.434 138.785 26.36 142.817 26.36C146.849 26.36 149.009 24.434 149.009 21.158C149.009 17.882 146.849 15.956 142.817 15.956ZM142.817 24.038C140.873 24.038 139.811 23.012 139.811 21.158C139.811 19.304 140.873 18.278 142.817 18.278C144.761 18.278 145.823 19.304 145.823 21.158C145.823 23.012 144.761 24.038 142.817 24.038ZM150.663 26H153.741V12.968H150.663V26ZM155.831 26H158.909V12.968H155.831V26Z" fill="#0B2545"/>
<g clip-path="url(#clip0_3_1420)">
<path fill-rule="evenodd" clip-rule="evenodd" d="M3.7583 38H34.2419C33.74 35.8453 32.2605 24.5329 31.7518 21.49C31.6205 20.7046 31.4233 19.8529 31.4233 18.9999H20.8792V20.8791H17.121V18.9999H6.57694C6.57694 19.7482 6.0652 22.6576 5.91985 23.7714L3.7583 38ZM17.1276 24.7506H20.8726V34.0694H17.1276V24.7506Z" fill="#774CEB"/>
<path fill-rule="evenodd" clip-rule="evenodd" d="M0 13.1538V22.8627H3.86262V15.2418H34.1374V22.8627H38V13.1538C38 12.1997 37.1793 11.3792 36.2253 11.3792H1.77465C0.820531 11.3792 0 12.1999 0 13.1538Z" fill="#774CEB"/>
<path fill-rule="evenodd" clip-rule="evenodd" d="M8.35168 7.6209H17.1209V3.86262H20.8792V7.6209H29.6484C29.6484 7.05805 29.4765 6.2734 29.3799 5.69713C29.2603 4.9838 29.1934 4.53674 29.0957 3.78904L28.5001 0H9.50001C9.40818 1.10309 8.35168 6.79042 8.35168 7.6209Z" fill="#774CEB"/>
</g>
<defs>
<clipPath id="clip0_3_1420">
<rect width="38" height="38" fill="white"/>
</clipPath>
</defs>
</svg>
