<svg version="1.2" xmlns="http://www.w3.org/2000/svg" viewBox="0 0 36 36" width="36" height="36"><defs><clipPath clipPathUnits="userSpaceOnUse" id="cp1"><path d="m6 6h24v24h-24z"/></clipPath></defs><style>.a{fill:#ebe5fc}.b{fill:#774ceb}</style><path class="a" d="m18 36c-10 0-18-8-18-18 0-10 8-18 18-18 10 0 18 8 18 18 0 10-8 18-18 18z"/><g clip-path="url(#cp1)"><path fill-rule="evenodd" class="b" d="m26 12h3v2h-1v11h1v2h-22v-2h1v-11h-1v-2h3v-2q0-0.4 0.3-0.7 0.3-0.3 0.7-0.3h14q0.4 0 0.7 0.3 0.3 0.3 0.3 0.7zm0 2h-16v11h3v-7h2v7h2v-7h2v7h2v-7h2v7h3zm-14-2h12v-1h-12z"/></g></svg>