<svg width="143" height="34" viewBox="0 0 143 34" fill="none" xmlns="http://www.w3.org/2000/svg">
<path d="M56.7761 17.876H50.5041V19.876H53.6241C53.5121 20.98 52.5841 22.164 50.2961 22.164C47.7521 22.164 46.2481 20.868 46.2481 18.388C46.2481 15.972 47.7521 14.676 50.1681 14.676C52.6801 14.676 53.3041 15.844 53.4641 16.548H56.7121C56.4881 14.132 54.3761 12.356 50.1681 12.356C46.0721 12.356 43.1921 14.292 43.1921 18.404C43.1921 22.5 46.1041 24.436 50.2961 24.436C52.0881 24.436 53.6401 23.892 54.6801 22.628V24.116H56.7761V17.876ZM67.1156 16.132H70.2356C70.1396 13.204 67.5156 12.356 64.2196 12.356C60.8756 12.356 58.4116 13.252 58.4116 15.892C58.4116 18.004 59.8036 18.836 61.9156 19.092L65.6596 19.572C66.6516 19.7 67.3716 19.972 67.3716 20.884C67.3876 21.86 66.2836 22.34 64.4116 22.34C62.6356 22.34 61.2916 21.972 61.1956 20.276H58.0756C58.1716 23.604 60.7156 24.436 64.2996 24.436C68.1076 24.436 70.6196 23.604 70.6196 20.708C70.6196 18.452 69.2276 17.588 67.1156 17.332L63.0836 16.852C62.1556 16.74 61.5796 16.484 61.5796 15.732C61.5796 14.852 62.4916 14.42 64.1396 14.42C65.7716 14.42 67.0356 14.788 67.1156 16.132ZM88.8248 12.676H76.9368V14.996H81.4968V24.1H84.2808V14.996H88.8248V12.676ZM88.7625 15.476V24.1H91.4985V20.324C91.4985 18.308 93.0985 17.844 94.6025 17.844C95.1305 17.844 95.6265 17.924 95.9785 18.004V15.348C95.7545 15.284 95.4345 15.252 95.1465 15.252C93.4985 15.252 92.3625 15.7 91.5145 16.612H91.4345V15.476H88.7625ZM106.723 22.708V17.828C106.723 15.764 104.755 15.172 101.987 15.172C99.4433 15.172 97.2193 15.892 97.1553 18.052H100.035C100.099 17.332 100.931 17.028 102.003 17.028C103.331 17.028 103.875 17.348 103.875 17.828C103.875 18.276 103.571 18.468 102.883 18.532L99.3153 18.9C97.7473 19.06 96.5793 19.748 96.5793 21.62C96.5793 23.572 98.3073 24.42 100.131 24.42C101.779 24.42 103.203 23.94 104.051 22.884V23.172C104.051 23.62 104.147 23.956 104.291 24.1H106.963V24.004C106.739 23.732 106.723 23.204 106.723 22.708ZM103.987 20.34C103.987 22.084 102.163 22.66 100.947 22.66C100.051 22.66 99.4113 22.388 99.4113 21.604C99.4113 20.884 99.9073 20.612 100.643 20.516L103.187 20.148C103.475 20.116 103.811 20.052 103.987 19.924V20.34ZM113.601 14.116C114.081 14.116 114.321 14.148 114.545 14.18V12.244C114.321 12.212 113.905 12.132 113.089 12.132C110.689 12.132 109.281 12.756 109.281 14.868V15.476H107.793V17.236H109.281V24.116H112.017V17.236H114.353V15.476H112.017V15.204C112.017 14.212 112.705 14.116 113.601 14.116ZM119.384 22.02C118.696 22.02 118.312 21.828 118.312 21.188V17.236H120.648V15.476H118.312V13.124H115.576V15.476H114.088V17.236H115.576V21.684C115.576 23.572 116.376 24.244 118.84 24.244C119.496 24.244 120.264 24.164 120.632 24.1V21.94C120.248 22.004 119.688 22.02 119.384 22.02ZM126.882 15.172C123.298 15.172 121.378 16.884 121.378 19.796C121.378 22.708 123.298 24.42 126.882 24.42C130.466 24.42 132.386 22.708 132.386 19.796C132.386 16.884 130.466 15.172 126.882 15.172ZM126.882 22.356C125.154 22.356 124.21 21.444 124.21 19.796C124.21 18.148 125.154 17.236 126.882 17.236C128.61 17.236 129.554 18.148 129.554 19.796C129.554 21.444 128.61 22.356 126.882 22.356ZM133.856 24.1H136.592V12.516H133.856V24.1ZM138.45 24.1H141.186V12.516H138.45V24.1Z" fill="black"/>
<g clip-path="url(#clip0_42_170)">
<path fill-rule="evenodd" clip-rule="evenodd" d="M3.33545 33.725H30.3896C29.9442 31.8126 28.6312 21.7729 28.1797 19.0724C28.0631 18.3753 27.8881 17.6194 27.8881 16.8624H18.5303V18.5302H15.1948V16.8624H5.83699C5.83699 17.5266 5.38282 20.1086 5.25382 21.0971L3.33545 33.725ZM15.2007 21.9661H18.5244V30.2366H15.2007V21.9661Z" fill="black"/>
<path fill-rule="evenodd" clip-rule="evenodd" d="M0 11.674V20.2906H3.42807V13.5271H30.2969V20.2906H33.725V11.674C33.725 10.8272 32.9966 10.099 32.15 10.099H1.575C0.728221 10.099 0 10.8274 0 11.674Z" fill="black"/>
<path fill-rule="evenodd" clip-rule="evenodd" d="M7.41211 6.76355H15.1948V3.42807H18.5303V6.76355H26.3129C26.3129 6.26401 26.1604 5.56764 26.0746 5.0562C25.9685 4.42312 25.9091 4.02636 25.8224 3.36277L25.2938 0H8.43124C8.34975 0.978991 7.41211 6.02649 7.41211 6.76355Z" fill="black"/>
</g>
<defs>
<clipPath id="clip0_42_170">
<rect width="33.725" height="33.725" fill="white"/>
</clipPath>
</defs>
</svg>
