<svg version="1.2" xmlns="http://www.w3.org/2000/svg" viewBox="0 0 36 36" width="36" height="36"><defs><clipPath clipPathUnits="userSpaceOnUse" id="cp1"><path d="m6 6h24v24h-24z"/></clipPath></defs><style>.a{opacity:.6;fill:#e3e3e3}.b{fill:#8c8c8c}</style><path class="a" d="m18 36c-10 0-18-8-18-18 0-10 8-18 18-18 10 0 18 8 18 18 0 10-8 18-18 18z"/><g clip-path="url(#cp1)" style="display:none"><path fill-rule="evenodd" class="b" d="m26 12h3v2h-1v11h1v2h-22v-2h1v-11h-1v-2h3v-2q0-0.4 0.3-0.7 0.3-0.3 0.7-0.3h14q0.4 0 0.7 0.3 0.3 0.3 0.3 0.7zm0 2h-16v11h3v-7h2v7h2v-7h2v7h2v-7h2v7h3zm-14-2h12v-1h-12z"/></g><path fill-rule="evenodd" class="b" d="m30 21c0 2.2-1.8 4-4 4-2.2 0-4-1.8-4-4 0-1.2 0.6-2.4 1.5-3.1l-1-1-3.5 6.1h-3l-2-2c0 2.2-1.8 4-4 4-2.2 0-4-1.8-4-4 0-2.2 1.8-4 4-4h-4v-2h5l2 2 4-2h3.6l-2-2h-3.6v-2h4.4l2.9 2.9 3.7-1.9v3h-2.6l2.1 2.1c0.1-0.1 0.3-0.1 0.5-0.1 2.2 0 4 1.8 4 4zm-18 0c0-1.1-0.9-2-2-2-1.1 0-2 0.9-2 2 0 1.1 0.9 2 2 2 1.1 0 2-0.9 2-2zm16 0c0-1.1-0.9-2-2-2-1.1 0-2 0.9-2 2 0 1.1 0.9 2 2 2 1.1 0 2-0.9 2-2z"/></svg>