<svg version="1.2" xmlns="http://www.w3.org/2000/svg" viewBox="0 0 36 36" width="36" height="36"><style>.a{fill:#ebe5fc}.b{fill:#774ceb}</style><path class="a" d="m18 36c-10 0-18-8-18-18 0-10 8-18 18-18 10 0 18 8 18 18 0 10-8 18-18 18z"/><path fill-rule="evenodd" class="b" d="m30 21c0 2.2-1.8 4-4 4-2.2 0-4-1.8-4-4 0-1.2 0.6-2.4 1.5-3.1l-1-1-3.5 6.1h-3l-2-2c0 2.2-1.8 4-4 4-2.2 0-4-1.8-4-4 0-2.2 1.8-4 4-4h-4v-2h5l2 2 4-2h3.6l-2-2h-3.6v-2h4.4l2.9 2.9 3.7-1.9v3h-2.6l2.1 2.1c0.1-0.1 0.3-0.1 0.5-0.1 2.2 0 4 1.8 4 4zm-18 0c0-1.1-0.9-2-2-2-1.1 0-2 0.9-2 2 0 1.1 0.9 2 2 2 1.1 0 2-0.9 2-2zm16 0c0-1.1-0.9-2-2-2-1.1 0-2 0.9-2 2 0 1.1 0.9 2 2 2 1.1 0 2-0.9 2-2z"/></svg>