<svg version="1.2" xmlns="http://www.w3.org/2000/svg" viewBox="0 0 36 36" width="36" height="36"><style>.a{fill:#ebe5fc}.b{fill:#774ceb}</style><path class="a" d="m18 36c-10 0-18-8-18-18 0-10 8-18 18-18 10 0 18 8 18 18 0 10-8 18-18 18z"/><path fill-rule="evenodd" class="b" d="m24.3 27h-12.6c-0.7 0-1.4-0.3-1.9-0.8-0.5-0.5-0.8-1.2-0.8-1.9v-14.4q0-0.4 0.3-0.6 0.2-0.3 0.6-0.3h12.6q0.4 0 0.6 0.3 0.3 0.2 0.3 0.6v10.8h3.6v3.6c0 0.7-0.3 1.4-0.8 1.9-0.5 0.5-1.2 0.8-1.9 0.8zm-0.9-4.5v1.8q0 0.4 0.3 0.6 0.2 0.3 0.6 0.3 0.4 0 0.6-0.3 0.3-0.2 0.3-0.6v-1.8zm-1.8 2.7v-14.4h-10.8v13.5q0 0.4 0.3 0.6 0.2 0.3 0.6 0.3zm-9-11.7h7.2v1.8h-7.2zm0 3.6h7.2v1.8h-7.2zm0 3.6h4.5v1.8h-4.5z"/></svg>